<svg width="512" height="512" viewBox="0 0 512 512" fill="none" xmlns="http://www.w3.org/2000/svg">
<g clip-path="url(#clip0_604_16)">
<rect width="512" height="512" rx="256" fill="#1D1D1D"/>
<path d="M162 256L256 420L350 256H162Z" fill="#F4BCBC"/>
<path d="M363.268 195.199C362.682 194.906 362.17 194.612 361.585 194.245C358.367 192.19 355.441 188.006 355.221 184.923L355.295 184.41C357.635 177.804 358.952 170.317 358.952 162.537C358.952 123.562 327.499 92 288.658 92C265.69 92 245.355 103.01 232.481 120.112C232.481 120.112 225.825 130.388 224.582 141.398C224.582 141.398 225.386 127.158 227.654 118.277C222.241 116.442 216.389 115.488 210.391 115.488C179.889 115.488 155.092 140.297 155.092 170.978C155.092 175.675 155.677 180.226 156.775 184.556C156.775 184.85 156.701 185.07 156.628 185.29C155.97 189.034 153.702 192.263 150.484 194.319C149.972 194.686 149.387 194.979 148.875 195.273C142.877 198.943 139 205.255 139 212.448C139 223.752 148.875 233 160.871 233H351.198C363.194 233 372.996 223.825 372.996 212.448C373.142 205.255 369.192 198.869 363.268 195.199Z" fill="#F4BCBC"/>
</g>
<defs>
<clipPath id="clip0_604_16">
<rect width="512" height="512" fill="white"/>
</clipPath>
</defs>
</svg>
